<svg width="41" height="43" viewBox="0 0 41 43" fill="none" xmlns="http://www.w3.org/2000/svg">
<path d="M18.0979 42.1507L0.723917 23.4654C0.460674 23.1823 0.273772 22.8756 0.16321 22.5453C0.0544029 22.215 0 21.8611 0 21.4837C0 21.1062 0.0544029 20.7523 0.16321 20.422C0.273772 20.0917 0.460674 19.785 0.723917 19.5019L18.0979 0.816661C18.5805 0.297627 19.1833 0.0258428 19.9064 0.00130666C20.6312 -0.0213421 21.2568 0.250442 21.7833 0.816661C22.3098 1.3357 22.5844 1.98402 22.6073 2.76163C22.6283 3.54112 22.3756 4.21398 21.8491 4.7802L8.95024 18.6526H38.3676C39.1134 18.6526 39.7391 18.9234 40.2445 19.4651C40.7482 20.0087 41 20.6815 41 21.4837C41 22.2858 40.7482 22.9577 40.2445 23.4994C39.7391 24.043 39.1134 24.3148 38.3676 24.3148H8.95024L21.8491 38.1871C22.3317 38.7062 22.5844 39.3668 22.6073 40.1689C22.6283 40.971 22.3756 41.6316 21.8491 42.1507C21.3665 42.7169 20.7523 43 20.0064 43C19.2606 43 18.6244 42.7169 18.0979 42.1507V42.1507Z" fill="white"/>
</svg>
