<svg width="65" height="65" viewBox="0 0 65 65" fill="none" xmlns="http://www.w3.org/2000/svg">
<path d="M17.875 8.87408C18.3027 8.87632 18.7267 8.80181 19.1227 8.6548C19.5187 8.5078 19.8788 8.2912 20.1825 8.01742L23.4325 5.06342C24.0445 4.50717 24.3883 3.75274 24.3883 2.96608C24.3883 2.17943 24.0445 1.42499 23.4325 0.868745C22.8205 0.312497 21.9905 5.86103e-09 21.125 0C20.2595 -5.86103e-09 19.4295 0.312497 18.8175 0.868745L15.5675 3.82274C15.2629 4.09735 15.0211 4.42407 14.8561 4.78404C14.6911 5.14401 14.6062 5.53012 14.6062 5.92008C14.6062 6.31004 14.6911 6.69614 14.8561 7.05612C15.0211 7.41609 15.2629 7.7428 15.5675 8.01742C15.8712 8.2912 16.2313 8.5078 16.6273 8.6548C17.0233 8.80181 17.4473 8.87632 17.875 8.87408ZM30.875 8.87408C31.3027 8.87632 31.7267 8.80181 32.1227 8.6548C32.5187 8.5078 32.8788 8.2912 33.1825 8.01742L36.4325 5.06342C37.0445 4.50717 37.3883 3.75274 37.3883 2.96608C37.3883 2.17943 37.0445 1.42499 36.4325 0.868745C35.8205 0.312497 34.9905 0 34.125 0C33.2595 0 32.4295 0.312497 31.8175 0.868745L28.5675 3.82274C28.2629 4.09735 28.0211 4.42407 27.8561 4.78404C27.6911 5.14401 27.6062 5.53012 27.6062 5.92008C27.6062 6.31004 27.6911 6.69614 27.8561 7.05612C28.0211 7.41609 28.2629 7.7428 28.5675 8.01742C28.8712 8.2912 29.2313 8.5078 29.6273 8.6548C30.0233 8.80181 30.4473 8.87632 30.875 8.87408ZM43.875 8.87408C44.3027 8.87632 44.7267 8.80181 45.1227 8.6548C45.5187 8.5078 45.8788 8.2912 46.1825 8.01742L49.4325 5.06342C49.7355 4.78799 49.9759 4.46102 50.1399 4.10115C50.3039 3.74129 50.3883 3.35559 50.3883 2.96608C50.3883 2.57657 50.3039 2.19087 50.1399 1.83101C49.9759 1.47115 49.7355 1.14417 49.4325 0.868745C49.1295 0.593319 48.7697 0.374839 48.3738 0.225779C47.9779 0.0767198 47.5535 0 47.125 0C46.6965 0 46.2721 0.0767198 45.8762 0.225779C45.4803 0.374839 45.1205 0.593319 44.8175 0.868745L41.5675 3.82274C41.2629 4.09735 41.0211 4.42407 40.8561 4.78404C40.6911 5.14401 40.6062 5.53012 40.6062 5.92008C40.6062 6.31004 40.6911 6.69614 40.8561 7.05612C41.0211 7.41609 41.2629 7.7428 41.5675 8.01742C41.8712 8.2912 42.2313 8.5078 42.6273 8.6548C43.0233 8.80181 43.4473 8.87632 43.875 8.87408ZM51.74 43.1995C51.6689 43.0113 51.5705 42.8325 51.4475 42.6678L51.0575 42.2247L50.57 41.8702C50.3888 41.7584 50.1921 41.669 49.985 41.6044C49.7915 41.5144 49.5828 41.4545 49.3675 41.4271C48.8454 41.3321 48.3055 41.3551 47.7955 41.4942C47.2855 41.6333 46.8209 41.8841 46.4425 42.2247C46.3027 42.3651 46.1725 42.513 46.0525 42.6678C45.9295 42.8325 45.8311 43.0113 45.76 43.1995C45.6663 43.367 45.6006 43.5462 45.565 43.7312C45.549 43.9279 45.549 44.1254 45.565 44.322C45.5686 45.097 45.9071 45.8396 46.5075 46.3898C46.8081 46.6755 47.1743 46.8974 47.58 47.0397C47.9505 47.1837 48.3473 47.2639 48.75 47.276C49.612 47.276 50.4386 46.9648 51.0481 46.4108C51.6576 45.8568 52 45.1055 52 44.322C52.016 44.1254 52.016 43.9279 52 43.7312C51.944 43.5429 51.8563 43.3635 51.74 43.1995ZM57.72 29.877L53.3 17.8838C52.6258 16.1504 51.3752 14.6506 49.7214 13.5921C48.0677 12.5335 46.0927 11.9687 44.07 11.9758H20.93C18.9073 11.9687 16.9323 12.5335 15.2786 13.5921C13.6248 14.6506 12.3742 16.1504 11.7 17.8838L7.28 29.877C5.20106 30.3718 3.36023 31.4771 2.0437 33.0209C0.727164 34.5648 0.00869901 36.4607 0 38.414V50.23C0.00565341 52.0584 0.633355 53.8404 1.79705 55.3318C2.96074 56.8231 4.60346 57.9508 6.5 58.5603V62.046C6.5 62.8295 6.84241 63.5808 7.4519 64.1348C8.0614 64.6888 8.88805 65 9.75 65C10.612 65 11.4386 64.6888 12.0481 64.1348C12.6576 63.5808 13 62.8295 13 62.046V59.092H52V62.046C52 62.8295 52.3424 63.5808 52.9519 64.1348C53.5614 64.6888 54.388 65 55.25 65C56.112 65 56.9386 64.6888 57.5481 64.1348C58.1576 63.5808 58.5 62.8295 58.5 62.046V58.5603C60.3965 57.9508 62.0393 56.8231 63.2029 55.3318C64.3666 53.8404 64.9943 52.0584 65 50.23V38.414C64.9913 36.4607 64.2728 34.5648 62.9563 33.0209C61.6398 31.4771 59.7989 30.3718 57.72 29.877ZM17.8425 19.7448C18.0605 19.1581 18.4759 18.6485 19.03 18.288C19.584 17.9275 20.2487 17.7345 20.93 17.7361H44.07C44.7787 17.7024 45.4801 17.8806 46.0669 18.2433C46.6538 18.606 47.0939 19.1334 47.32 19.7448L50.7325 29.552H14.2675L17.8425 19.7448ZM58.5 50.23C58.5 51.0135 58.1576 51.7648 57.5481 52.3188C56.9386 52.8728 56.112 53.184 55.25 53.184H9.75C8.88805 53.184 8.0614 52.8728 7.4519 52.3188C6.84241 51.7648 6.5 51.0135 6.5 50.23V38.414C6.5 37.6306 6.84241 36.8792 7.4519 36.3252C8.0614 35.7713 8.88805 35.46 9.75 35.46H55.25C56.112 35.46 56.9386 35.7713 57.5481 36.3252C58.1576 36.8792 58.5 37.6306 58.5 38.414V50.23ZM35.75 41.368H29.25C28.388 41.368 27.5614 41.6793 26.9519 42.2332C26.3424 42.7872 26 43.5386 26 44.322C26 45.1055 26.3424 45.8568 26.9519 46.4108C27.5614 46.9648 28.388 47.276 29.25 47.276H35.75C36.612 47.276 37.4386 46.9648 38.0481 46.4108C38.6576 45.8568 39 45.1055 39 44.322C39 43.5386 38.6576 42.7872 38.0481 42.2332C37.4386 41.6793 36.612 41.368 35.75 41.368ZM19.24 43.1995C19.1689 43.0113 19.0705 42.8325 18.9475 42.6678L18.5575 42.2247C18.1005 41.8148 17.5201 41.5371 16.8896 41.4267C16.2592 41.3163 15.6069 41.3781 15.015 41.6044C14.6161 41.7449 14.2516 41.9558 13.9425 42.2247C13.8027 42.3651 13.6725 42.513 13.5525 42.6678C13.4295 42.8325 13.3311 43.0113 13.26 43.1995C13.1437 43.3635 13.056 43.5429 13 43.7312C12.984 43.9279 12.984 44.1254 13 44.322C13.0027 44.9062 13.1959 45.4766 13.5553 45.961C13.9146 46.4454 14.4239 46.8221 15.0187 47.0435C15.6136 47.2648 16.2673 47.3208 16.8972 47.2045C17.5271 47.0881 18.1049 46.8046 18.5575 46.3898C19.1579 45.8396 19.4964 45.097 19.5 44.322C19.516 44.1254 19.516 43.9279 19.5 43.7312C19.444 43.5429 19.3563 43.3635 19.24 43.1995Z" fill="#094343"/>
</svg>
