<svg width="54" height="56" viewBox="0 0 54 56" fill="none" xmlns="http://www.w3.org/2000/svg">
<path d="M34.587 28.784C36.296 26.8807 37.2588 24.3846 37.287 21.784C37.287 18.9769 36.2117 16.2849 34.2977 14.3C32.3837 12.3151 29.7878 11.2 27.081 11.2C24.3742 11.2 21.7783 12.3151 19.8643 14.3C17.9503 16.2849 16.875 18.9769 16.875 21.784C16.9032 24.3846 17.866 26.8807 19.575 28.784C17.1954 30.0128 15.1476 31.8358 13.6159 34.089C12.0841 36.3421 11.1165 38.9548 10.8 41.692C10.7212 42.4346 10.9302 43.1792 11.3808 43.7621C11.8315 44.345 12.4869 44.7183 13.203 44.8C13.9191 44.8817 14.6371 44.665 15.1992 44.1977C15.7612 43.7303 16.1212 43.0506 16.2 42.308C16.5222 39.5952 17.7899 37.0982 19.7642 35.2874C21.7386 33.4767 24.2833 32.4771 26.919 32.4771C29.5547 32.4771 32.0994 33.4767 34.0738 35.2874C36.0481 37.0982 37.3158 39.5952 37.638 42.308C37.7131 43.026 38.0528 43.6861 38.5861 44.1504C39.1194 44.6148 39.8051 44.8475 40.5 44.8H40.797C41.5048 44.7155 42.1517 44.3444 42.5967 43.7675C43.0418 43.1906 43.2489 42.4546 43.173 41.72C42.8799 38.9972 41.9428 36.3917 40.445 34.1349C38.9471 31.8782 36.9348 30.0401 34.587 28.784ZM27 26.768C26.0495 26.768 25.1203 26.4757 24.3299 25.928C23.5396 25.3804 22.9236 24.602 22.5598 23.6913C22.1961 22.7806 22.1009 21.7785 22.2863 20.8117C22.4718 19.8449 22.9295 18.9568 23.6016 18.2598C24.2738 17.5628 25.1301 17.0881 26.0624 16.8958C26.9947 16.7035 27.961 16.8022 28.8392 17.1794C29.7174 17.5566 30.468 18.1954 30.996 19.015C31.5241 19.8347 31.806 20.7983 31.806 21.784C31.806 23.1058 31.2997 24.3735 30.3984 25.3082C29.4971 26.2429 28.2746 26.768 27 26.768ZM45.9 0H8.1C5.95175 0 3.89148 0.884998 2.37244 2.4603C0.853391 4.03561 0 6.17218 0 8.4V47.6C0 49.8278 0.853391 51.9644 2.37244 53.5397C3.89148 55.115 5.95175 56 8.1 56H45.9C48.0483 56 50.1085 55.115 51.6276 53.5397C53.1466 51.9644 54 49.8278 54 47.6V8.4C54 6.17218 53.1466 4.03561 51.6276 2.4603C50.1085 0.884998 48.0483 0 45.9 0ZM48.6 47.6C48.6 48.3426 48.3155 49.0548 47.8092 49.5799C47.3028 50.105 46.6161 50.4 45.9 50.4H8.1C7.38392 50.4 6.69716 50.105 6.19081 49.5799C5.68446 49.0548 5.4 48.3426 5.4 47.6V8.4C5.4 7.65739 5.68446 6.9452 6.19081 6.4201C6.69716 5.895 7.38392 5.6 8.1 5.6H45.9C46.6161 5.6 47.3028 5.895 47.8092 6.4201C48.3155 6.9452 48.6 7.65739 48.6 8.4V47.6Z" fill="#094343"/>
</svg>
