<svg width="65" height="50" viewBox="0 0 65 50" fill="none" xmlns="http://www.w3.org/2000/svg">
<path d="M55.25 16.6667H54.21L50.1475 6.2667C49.422 4.41756 48.1742 2.83299 46.5643 1.71639C44.9544 0.599782 43.0559 0.00209568 41.1125 4.09925e-05H21.6125C19.3547 -0.00658681 17.1646 0.790677 15.4161 2.25575C13.6676 3.72082 12.469 5.76288 12.025 8.03337L10.335 16.6667H9.75C7.16414 16.6667 4.68419 17.7203 2.85571 19.5956C1.02723 21.471 0 24.0145 0 26.6667V36.6667C0 37.5507 0.34241 38.3986 0.951903 39.0237C1.5614 39.6488 2.38805 40 3.25 40H6.5C6.5 42.6522 7.52723 45.1957 9.35571 47.0711C11.1842 48.9464 13.6641 50 16.25 50C18.8359 50 21.3158 48.9464 23.1443 47.0711C24.9728 45.1957 26 42.6522 26 40H39C39 42.6522 40.0272 45.1957 41.8557 47.0711C43.6842 48.9464 46.1641 50 48.75 50C51.3359 50 53.8158 48.9464 55.6443 47.0711C57.4728 45.1957 58.5 42.6522 58.5 40H61.75C62.612 40 63.4386 39.6488 64.0481 39.0237C64.6576 38.3986 65 37.5507 65 36.6667V26.6667C65 24.0145 63.9728 21.471 62.1443 19.5956C60.3158 17.7203 57.8359 16.6667 55.25 16.6667ZM35.75 6.6667H41.1125C41.7579 6.67269 42.3869 6.87561 42.9194 7.24961C43.4519 7.6236 43.8637 8.15174 44.1025 8.7667L47.19 16.6667H35.75V6.6667ZM18.395 9.33337C18.5469 8.56912 18.9554 7.88371 19.5492 7.39646C20.143 6.90921 20.8847 6.65098 21.645 6.6667H29.25V16.6667H16.965L18.395 9.33337ZM16.25 43.3333C15.6072 43.3333 14.9789 43.1378 14.4444 42.7716C13.9099 42.4053 13.4934 41.8847 13.2474 41.2756C13.0014 40.6665 12.937 39.9963 13.0624 39.3497C13.1878 38.7031 13.4974 38.1092 13.9519 37.643C14.4064 37.1768 14.9855 36.8593 15.616 36.7307C16.2464 36.6021 16.8999 36.6681 17.4937 36.9204C18.0876 37.1727 18.5952 37.5999 18.9523 38.1481C19.3094 38.6963 19.5 39.3407 19.5 40C19.5 40.8841 19.1576 41.7319 18.5481 42.357C17.9386 42.9822 17.112 43.3333 16.25 43.3333ZM48.75 43.3333C48.1072 43.3333 47.4789 43.1378 46.9444 42.7716C46.4099 42.4053 45.9934 41.8847 45.7474 41.2756C45.5014 40.6665 45.437 39.9963 45.5624 39.3497C45.6879 38.7031 45.9974 38.1092 46.4519 37.643C46.9064 37.1768 47.4855 36.8593 48.116 36.7307C48.7464 36.6021 49.3999 36.6681 49.9937 36.9204C50.5876 37.1727 51.0952 37.5999 51.4523 38.1481C51.8094 38.6963 52 39.3407 52 40C52 40.8841 51.6576 41.7319 51.0481 42.357C50.4386 42.9822 49.612 43.3333 48.75 43.3333ZM58.5 33.3333H55.965C55.0512 32.3022 53.9373 31.4783 52.6948 30.9145C51.4523 30.3507 50.1087 30.0594 48.75 30.0594C47.3913 30.0594 46.0477 30.3507 44.8052 30.9145C43.5627 31.4783 42.4488 32.3022 41.535 33.3333H23.465C22.5512 32.3022 21.4373 31.4783 20.1948 30.9145C18.9523 30.3507 17.6087 30.0594 16.25 30.0594C14.8913 30.0594 13.5477 30.3507 12.3052 30.9145C11.0627 31.4783 9.94884 32.3022 9.035 33.3333H6.5V26.6667C6.5 25.7826 6.84241 24.9348 7.4519 24.3097C8.0614 23.6845 8.88805 23.3334 9.75 23.3334H55.25C56.112 23.3334 56.9386 23.6845 57.5481 24.3097C58.1576 24.9348 58.5 25.7826 58.5 26.6667V33.3333Z" fill="#094343"/>
</svg>
