<svg width="35" height="45" viewBox="0 0 35 45" fill="none" xmlns="http://www.w3.org/2000/svg">
<path d="M17.5 0C12.8587 0 8.40752 1.89642 5.12563 5.27206C1.84374 8.6477 0 13.2261 0 17.9999C0 30.1499 15.4219 43.8749 16.0781 44.4599C16.4744 44.8084 16.9786 45 17.5 45C18.0214 45 18.5256 44.8084 18.9219 44.4599C19.6875 43.8749 35 30.1499 35 17.9999C35 13.2261 33.1563 8.6477 29.8744 5.27206C26.5925 1.89642 22.1413 0 17.5 0ZM17.5 39.7124C12.8406 35.2124 4.375 25.5149 4.375 17.9999C4.375 14.4195 5.75781 10.9858 8.21922 8.45403C10.6806 5.9223 14.019 4.49999 17.5 4.49999C20.981 4.49999 24.3194 5.9223 26.7808 8.45403C29.2422 10.9858 30.625 14.4195 30.625 17.9999C30.625 25.5149 22.1594 35.2349 17.5 39.7124ZM17.5 8.99997C15.7694 8.99997 14.0777 9.52781 12.6388 10.5167C11.1998 11.5057 10.0783 12.9113 9.41605 14.5558C8.75379 16.2003 8.58051 18.0099 8.91813 19.7557C9.25575 21.5016 10.0891 23.1052 11.3128 24.3639C12.5365 25.6225 14.0956 26.4797 15.793 26.827C17.4903 27.1742 19.2496 26.996 20.8485 26.3148C22.4473 25.6336 23.8139 24.4801 24.7754 23.0001C25.7368 21.52 26.25 19.78 26.25 17.9999C26.25 15.613 25.3281 13.3238 23.6872 11.636C22.0462 9.94818 19.8206 8.99997 17.5 8.99997ZM17.5 22.4999C16.6347 22.4999 15.7888 22.236 15.0694 21.7415C14.3499 21.2471 13.7892 20.5443 13.458 19.722C13.1269 18.8997 13.0403 17.9949 13.2091 17.122C13.3779 16.2491 13.7946 15.4473 14.4064 14.818C15.0183 14.1886 15.7978 13.7601 16.6465 13.5864C17.4951 13.4128 18.3748 13.5019 19.1742 13.8425C19.9737 14.1831 20.6569 14.7599 21.1377 15.4999C21.6184 16.2399 21.875 17.1099 21.875 17.9999C21.875 19.1934 21.4141 20.338 20.5936 21.1819C19.7731 22.0258 18.6603 22.4999 17.5 22.4999Z" fill="#094343"/>
</svg>
