<svg width="65" height="55" viewBox="0 0 65 55" fill="none" xmlns="http://www.w3.org/2000/svg">
<path d="M51.5244 15.7142C51.5244 17.2921 52.944 18.5713 54.6951 18.5713C56.4463 18.5713 57.8659 17.2921 57.8659 15.7142V12.1435H61.8293C63.5804 12.1435 65 10.8643 65 9.28635C65 7.70841 63.5804 6.42923 61.8293 6.42923L57.8659 6.42923V2.85712C57.8659 1.27918 56.4463 0 54.6951 0C52.944 0 51.5244 1.27918 51.5244 2.85712V6.42923L47.561 6.42923C45.8098 6.42923 44.3902 7.70841 44.3902 9.28636C44.3902 10.8643 45.8098 12.1435 47.561 12.1435H51.5244V15.7142Z" fill="#094343"/>
<path fill-rule="evenodd" clip-rule="evenodd" d="M11.0976 13.5717C11.0976 6.47093 17.4857 0.71463 25.3659 0.71463C33.246 0.71463 39.6341 6.47093 39.6341 13.5717C39.6341 20.6725 33.246 26.4288 25.3659 26.4288C17.4857 26.4288 11.0976 20.6725 11.0976 13.5717ZM25.3659 6.42888C20.988 6.42888 17.439 9.62683 17.439 13.5717C17.439 17.5166 20.988 20.7145 25.3659 20.7145C29.7437 20.7145 33.2927 17.5166 33.2927 13.5717C33.2927 9.62683 29.7437 6.42888 25.3659 6.42888Z" fill="#094343"/>
<path fill-rule="evenodd" clip-rule="evenodd" d="M25.3659 32.143C12.8452 32.143 5.86784 36.1835 2.64153 38.8827C0.622719 40.5716 0 42.8668 0 44.8002C0 50.4334 5.06784 55 11.3193 55H39.4124C45.6639 55 50.7317 50.4334 50.7317 44.8002C50.7317 42.8668 50.109 40.5716 48.0902 38.8827C44.8639 36.1835 37.8865 32.143 25.3659 32.143ZM6.95623 43.0703C9.06824 41.3034 14.5239 37.8573 25.3659 37.8573C36.2078 37.8573 41.6635 41.3034 43.7755 43.0703C44.0893 43.3329 44.3902 43.8654 44.3902 44.8002C44.3902 47.2775 42.1616 49.2858 39.4124 49.2858H11.3193C8.57014 49.2858 6.34146 47.2775 6.34146 44.8002C6.34146 43.8654 6.64236 43.3329 6.95623 43.0703Z" fill="#094343"/>
</svg>
