<svg width="72" height="49" viewBox="0 0 72 49" fill="none" xmlns="http://www.w3.org/2000/svg">
<path d="M7.23873 49H64.7613C68.7534 49 72 46.5582 72 43.5556V5.44444C72 2.44183 68.7534 0 64.7613 0H7.23873C3.24657 0 0 2.44183 0 5.44444V43.5556C0 46.5582 3.24657 49 7.23873 49ZM7.23873 43.5556V29.9444H21.7162V43.5556H7.23873ZM43.4324 10.8889V24.5H28.9549V10.8889H43.4324ZM21.7162 10.8889V24.5H7.23873V10.8889H21.7162ZM28.9549 43.5556V29.9444H43.4324V43.5556H28.9549ZM50.6711 43.5556V29.9444H64.7649V43.5556H50.6711ZM64.7613 24.5H50.6711V10.8889H64.7613V24.5Z" fill="#094C43"/>
</svg>
