<svg width="40" height="40" viewBox="0 0 40 40" fill="none" xmlns="http://www.w3.org/2000/svg">
<path d="M13.6356 13.6361C14.4166 12.8551 15.683 12.8551 16.464 13.6361L19.9996 17.1718L23.5354 13.636C24.3164 12.8549 25.5828 12.8549 26.3638 13.636C27.1449 14.417 27.1449 15.6834 26.3638 16.4644L22.8281 20.0002L26.3635 23.5356C27.1446 24.3167 27.1446 25.583 26.3635 26.3641C25.5825 27.1451 24.3161 27.1451 23.5351 26.3641L19.9996 22.8286L16.4643 26.3639C15.6833 27.145 14.4169 27.145 13.6359 26.3639C12.8548 25.5829 12.8548 24.3165 13.6359 23.5355L17.1712 20.0002L13.6356 16.4646C12.8545 15.6835 12.8545 14.4172 13.6356 13.6361Z" fill="#094343"/>
<path fill-rule="evenodd" clip-rule="evenodd" d="M20 40C31.0457 40 40 31.0457 40 20C40 8.9543 31.0457 0 20 0C8.9543 0 0 8.9543 0 20C0 31.0457 8.9543 40 20 40ZM20 36C28.8366 36 36 28.8366 36 20C36 11.1634 28.8366 4 20 4C11.1634 4 4 11.1634 4 20C4 28.8366 11.1634 36 20 36Z" fill="#094343"/>
</svg>
