<svg width="47" height="45" viewBox="0 0 47 45" fill="none" xmlns="http://www.w3.org/2000/svg">
<path d="M16.45 22.5C16.45 21.2574 15.3979 20.25 14.1 20.25C12.8021 20.25 11.75 21.2574 11.75 22.5C11.75 23.7426 12.8021 24.75 14.1 24.75C15.3979 24.75 16.45 23.7426 16.45 22.5Z" fill="#094343"/>
<path d="M23.5 20.25C24.7979 20.25 25.85 21.2574 25.85 22.5C25.85 23.7426 24.7979 24.75 23.5 24.75C22.2021 24.75 21.15 23.7426 21.15 22.5C21.15 21.2574 22.2021 20.25 23.5 20.25Z" fill="#094343"/>
<path d="M35.25 22.5C35.25 21.2574 34.1979 20.25 32.9 20.25C31.6021 20.25 30.55 21.2574 30.55 22.5C30.55 23.7426 31.6021 24.75 32.9 24.75C34.1979 24.75 35.25 23.7426 35.25 22.5Z" fill="#094343"/>
<path fill-rule="evenodd" clip-rule="evenodd" d="M47 22.5C47 26.5982 45.8556 30.4406 43.8561 33.75L45.2011 42.2033C45.4759 43.9308 43.6789 45.2858 41.9894 44.6252L35.25 41.9899C31.7935 43.9043 27.7804 45 23.5 45C10.5213 45 0 34.9264 0 22.5C0 10.0736 10.5213 0 23.5 0C36.4787 0 47 10.0736 47 22.5ZM39.7878 31.4967C39.2527 32.3824 39.0488 33.4162 39.2097 34.4277L39.9307 38.9594L37.027 37.8239C35.6806 37.2975 34.1555 37.3974 32.8966 38.0947C30.1361 39.6236 26.9321 40.5 23.5 40.5C13.117 40.5 4.7 32.4411 4.7 22.5C4.7 12.5589 13.117 4.5 23.5 4.5C33.883 4.5 42.3 12.5589 42.3 22.5C42.3 25.7861 41.3846 28.8538 39.7878 31.4967Z" fill="#094343"/>
</svg>
