<svg width="65" height="65" viewBox="0 0 65 65" fill="none" xmlns="http://www.w3.org/2000/svg">
<path d="M32.5 39C33.1428 39 33.7711 38.8094 34.3056 38.4523C34.8401 38.0952 35.2566 37.5876 35.5026 36.9937C35.7486 36.3999 35.813 35.7464 35.6876 35.116C35.5621 34.4855 35.2526 33.9064 34.7981 33.4519C34.3436 32.9974 33.7645 32.6879 33.134 32.5624C32.5036 32.437 31.8501 32.5014 31.2563 32.7474C30.6624 32.9934 30.1548 33.4099 29.7977 33.9444C29.4406 34.4789 29.25 35.1072 29.25 35.75C29.25 36.612 29.5924 37.4386 30.2019 38.0481C30.8114 38.6576 31.638 39 32.5 39ZM48.75 39C49.3928 39 50.0211 38.8094 50.5556 38.4523C51.0901 38.0952 51.5066 37.5876 51.7526 36.9937C51.9986 36.3999 52.063 35.7464 51.9376 35.116C51.8121 34.4855 51.5026 33.9064 51.0481 33.4519C50.5936 32.9974 50.0145 32.6879 49.384 32.5624C48.7536 32.437 48.1001 32.5014 47.5063 32.7474C46.9124 32.9934 46.4048 33.4099 46.0477 33.9444C45.6906 34.4789 45.5 35.1072 45.5 35.75C45.5 36.612 45.8424 37.4386 46.4519 38.0481C47.0614 38.6576 47.888 39 48.75 39ZM32.5 52C33.1428 52 33.7711 51.8094 34.3056 51.4523C34.8401 51.0952 35.2566 50.5876 35.5026 49.9937C35.7486 49.3999 35.813 48.7464 35.6876 48.116C35.5621 47.4855 35.2526 46.9064 34.7981 46.4519C34.3436 45.9974 33.7645 45.6879 33.134 45.5624C32.5036 45.437 31.8501 45.5014 31.2563 45.7474C30.6624 45.9934 30.1548 46.4099 29.7977 46.9444C29.4406 47.4789 29.25 48.1072 29.25 48.75C29.25 49.612 29.5924 50.4386 30.2019 51.0481C30.8114 51.6576 31.638 52 32.5 52ZM48.75 52C49.3928 52 50.0211 51.8094 50.5556 51.4523C51.0901 51.0952 51.5066 50.5876 51.7526 49.9937C51.9986 49.3999 52.063 48.7464 51.9376 48.116C51.8121 47.4855 51.5026 46.9064 51.0481 46.4519C50.5936 45.9974 50.0145 45.6879 49.384 45.5624C48.7536 45.437 48.1001 45.5014 47.5063 45.7474C46.9124 45.9934 46.4048 46.4099 46.0477 46.9444C45.6906 47.4789 45.5 48.1072 45.5 48.75C45.5 49.612 45.8424 50.4386 46.4519 51.0481C47.0614 51.6576 47.888 52 48.75 52ZM16.25 39C16.8928 39 17.5211 38.8094 18.0556 38.4523C18.5901 38.0952 19.0066 37.5876 19.2526 36.9937C19.4986 36.3999 19.563 35.7464 19.4376 35.116C19.3122 34.4855 19.0026 33.9064 18.5481 33.4519C18.0936 32.9974 17.5145 32.6879 16.884 32.5624C16.2536 32.437 15.6001 32.5014 15.0063 32.7474C14.4124 32.9934 13.9048 33.4099 13.5477 33.9444C13.1906 34.4789 13 35.1072 13 35.75C13 36.612 13.3424 37.4386 13.9519 38.0481C14.5614 38.6576 15.388 39 16.25 39ZM55.25 6.5H52V3.25C52 2.38805 51.6576 1.5614 51.0481 0.951903C50.4386 0.34241 49.612 0 48.75 0C47.888 0 47.0614 0.34241 46.4519 0.951903C45.8424 1.5614 45.5 2.38805 45.5 3.25V6.5H19.5V3.25C19.5 2.38805 19.1576 1.5614 18.5481 0.951903C17.9386 0.34241 17.112 0 16.25 0C15.388 0 14.5614 0.34241 13.9519 0.951903C13.3424 1.5614 13 2.38805 13 3.25V6.5H9.75C7.16414 6.5 4.68419 7.52723 2.85571 9.35571C1.02723 11.1842 0 13.6641 0 16.25V55.25C0 57.8359 1.02723 60.3158 2.85571 62.1443C4.68419 63.9728 7.16414 65 9.75 65H55.25C57.8359 65 60.3158 63.9728 62.1443 62.1443C63.9728 60.3158 65 57.8359 65 55.25V16.25C65 13.6641 63.9728 11.1842 62.1443 9.35571C60.3158 7.52723 57.8359 6.5 55.25 6.5ZM58.5 55.25C58.5 56.112 58.1576 56.9386 57.5481 57.5481C56.9386 58.1576 56.112 58.5 55.25 58.5H9.75C8.88805 58.5 8.0614 58.1576 7.4519 57.5481C6.84241 56.9386 6.5 56.112 6.5 55.25V26H58.5V55.25ZM58.5 19.5H6.5V16.25C6.5 15.388 6.84241 14.5614 7.4519 13.9519C8.0614 13.3424 8.88805 13 9.75 13H55.25C56.112 13 56.9386 13.3424 57.5481 13.9519C58.1576 14.5614 58.5 15.388 58.5 16.25V19.5ZM16.25 52C16.8928 52 17.5211 51.8094 18.0556 51.4523C18.5901 51.0952 19.0066 50.5876 19.2526 49.9937C19.4986 49.3999 19.563 48.7464 19.4376 48.116C19.3122 47.4855 19.0026 46.9064 18.5481 46.4519C18.0936 45.9974 17.5145 45.6879 16.884 45.5624C16.2536 45.437 15.6001 45.5014 15.0063 45.7474C14.4124 45.9934 13.9048 46.4099 13.5477 46.9444C13.1906 47.4789 13 48.1072 13 48.75C13 49.612 13.3424 50.4386 13.9519 51.0481C14.5614 51.6576 15.388 52 16.25 52Z" fill="#094343"/>
</svg>
