<svg width="193" height="15" viewBox="0 0 193 15" fill="none" xmlns="http://www.w3.org/2000/svg">
<path d="M0.17 0.499999C0.224 2.246 0.224 4.388 0.224 7.25C0.224 10.13 0.224 12.182 0.17 14H11.006C10.97 13.55 10.97 12.83 10.97 12.29C10.97 11.66 10.97 10.868 11.006 10.436C8.954 10.454 6.434 10.472 4.616 10.472V8.51C6.74 8.51 9.08 8.528 10.826 8.564C10.826 7.844 10.826 6.278 10.844 5.612C9.08 5.666 6.758 5.666 4.616 5.666V3.776C6.416 3.776 8.81 3.794 11.006 3.812C10.97 3.416 10.97 2.642 10.97 2.084C10.97 1.562 10.988 0.877999 11.006 0.499999H0.17ZM19.8969 2.786C19.7889 3.632 19.2489 6.008 18.8349 8.114C18.6009 9.194 18.4209 10.148 18.2769 10.922H18.0969C17.9529 10.148 17.7729 9.194 17.5569 8.132C17.1429 6.044 16.6029 3.686 16.4769 2.786H11.8689C12.7689 5.702 14.6769 12.344 15.1809 14C15.5949 13.964 16.7109 13.964 18.1509 13.964C19.4109 13.964 20.2749 13.982 20.9589 14C21.4449 12.29 23.2989 5.648 24.1629 2.786H19.8969ZM30.2819 5.144C31.4339 5.144 31.8659 5.648 31.8659 7.016C31.8659 7.196 31.8659 7.358 31.8479 7.502C30.6779 7.52 29.5079 7.52 28.4639 7.502C28.6079 5.576 29.1839 5.144 30.2819 5.144ZM33.6299 10.256C32.9099 10.256 32.2799 10.238 31.8479 10.202C31.8299 11.12 31.4879 11.57 30.3359 11.57C29.0759 11.57 28.5359 11.012 28.4459 9.248C29.1659 9.23 30.1739 9.23 31.2719 9.23C32.7659 9.23 34.4399 9.23 35.5559 9.266C35.6099 8.78 35.6459 8.06 35.6459 7.142C35.6459 4.19 34.4579 2.552 30.3539 2.552C26.4839 2.552 24.3959 4.1 24.3959 8.42C24.3959 12.524 26.3399 14.234 30.2279 14.234C34.7999 14.234 35.6999 12.812 35.6099 10.202C35.0519 10.238 34.3859 10.256 33.6299 10.256ZM49.1687 14C49.1147 12.812 49.0967 11.642 49.0967 10.238C49.0967 9.068 49.1327 8.15 49.1327 6.35C49.1327 3.668 47.8007 2.624 45.4787 2.624C43.6787 2.624 42.4187 3.236 41.7527 4.676L41.6447 4.64C41.6807 4.01 41.6807 3.488 41.6987 2.786H37.4147C37.4507 4.334 37.4687 6.026 37.4687 8.42C37.4687 10.958 37.4507 12.398 37.4147 14H41.6987C41.6807 12.884 41.6627 11.714 41.6627 8.24C41.6627 6.62 42.4727 6.044 43.4987 6.044C44.5247 6.044 44.9027 6.512 44.9027 7.682C44.9027 10.31 44.8847 12.434 44.8487 14H49.1687ZM50.3885 2.786C50.4245 3.74 50.4065 5.18 50.4065 6.206L51.5045 6.224C51.4865 7.646 51.4685 8.996 51.4685 10.022C51.4685 12.506 52.5305 14.144 56.1845 14.144C57.5165 14.144 58.3985 14 59.4605 13.73C59.3165 12.632 59.1185 11.066 59.0645 9.932C58.5065 10.148 57.7865 10.274 56.9405 10.274C55.9325 10.274 55.5725 9.968 55.5725 9.158C55.5725 8.132 55.5725 7.178 55.5905 6.278C57.0485 6.296 58.4165 6.332 59.1365 6.35C59.1185 5.216 59.1725 3.902 59.2085 2.786C58.1825 2.804 56.9225 2.822 55.6445 2.822C55.6625 2.066 55.6985 1.346 55.7165 0.661999C55.0685 0.698 54.3305 0.698 53.6285 0.698C52.9265 0.698 52.2065 0.698 51.5585 0.661999C51.5585 1.292 51.5585 2.03 51.5405 2.804L50.3885 2.786ZM73.9997 8.582C73.9997 9.788 73.3877 10.58 72.0017 10.58C70.4177 10.58 69.6797 9.698 69.6797 7.052C69.6797 4.388 70.3997 3.686 71.9117 3.668C73.2797 3.668 73.9817 4.19 73.9817 5.72C73.9817 5.828 73.9817 5.972 73.9637 6.116C74.6837 6.08 75.3857 6.08 76.1057 6.08C76.8077 6.08 77.5457 6.08 78.2657 6.116C78.3017 5.72 78.3197 5.342 78.3197 5C78.3197 2.066 76.5737 0.266 71.9657 0.266C67.2677 0.266 65.1257 2.426 65.1257 7.07C65.1257 12.146 67.3397 14.234 71.9117 14.234C76.2497 14.234 78.3557 12.488 78.3557 8.906C78.3557 8.672 78.3557 8.402 78.3377 8.114C77.6177 8.132 76.8797 8.132 76.1597 8.132C75.4397 8.132 74.7197 8.132 73.9997 8.114V8.582ZM87.5648 8.24C87.5648 10.148 86.8808 10.904 85.6208 10.904C84.3968 10.904 83.6768 10.166 83.6768 8.24C83.6768 6.314 84.4148 5.72 85.6208 5.72C86.8448 5.72 87.5648 6.35 87.5648 8.24ZM91.7408 8.168C91.7408 4.154 89.4548 2.552 85.6208 2.552C81.7868 2.552 79.5728 4.154 79.5728 8.168C79.5728 12.164 81.5708 14.234 85.6208 14.234C89.6708 14.234 91.7408 12.164 91.7408 8.168ZM100.784 8.24C100.784 10.148 100.1 10.904 98.8395 10.904C97.6155 10.904 96.8955 10.166 96.8955 8.24C96.8955 6.314 97.6335 5.72 98.8395 5.72C100.064 5.72 100.784 6.35 100.784 8.24ZM104.96 8.168C104.96 4.154 102.674 2.552 98.8395 2.552C95.0055 2.552 92.7915 4.154 92.7915 8.168C92.7915 12.164 94.7895 14.234 98.8395 14.234C102.89 14.234 104.96 12.164 104.96 8.168ZM109.97 5.198C109.988 4.316 110.024 3.56 110.06 2.786H106.514C106.568 4.37 106.568 5.972 106.568 8.33C106.568 10.742 106.55 12.434 106.514 14H111.05C110.978 12.776 110.96 11.084 110.96 9.662C110.96 7.646 111.464 7.07 112.904 7.052C113.372 7.052 113.822 7.124 114.218 7.25C114.236 5.774 114.344 4.1 114.452 2.822C114.056 2.714 113.642 2.66 113.192 2.66C111.716 2.66 110.618 3.362 110.114 5.198H109.97ZM122.788 8.798C122.788 10.346 121.96 11.03 120.844 11.03C119.782 11.03 119.134 10.364 119.134 8.366C119.134 6.26 119.782 5.612 121.06 5.612C121.744 5.612 122.32 5.738 122.788 5.954V8.798ZM122.698 0.0679991C122.734 0.805999 122.716 1.526 122.716 2.39C122.716 3.074 122.716 3.596 122.752 4.226L122.698 4.244C122.05 3.128 120.934 2.606 119.368 2.606C116.902 2.606 114.994 4.244 114.994 8.42C114.994 12.56 116.578 14.162 119.134 14.162C121.15 14.162 122.158 13.1 122.626 11.948L122.752 11.966C122.734 12.254 122.734 12.542 122.734 12.812C122.734 13.244 122.716 13.622 122.716 14.018H127.018C126.964 12.092 126.982 10.166 126.982 7.304C126.982 3.992 126.964 2.03 127.018 0.0679991H122.698ZM133.675 1.004C133.675 0.391999 133.333 0.0139998 131.245 0.0139998C129.139 0.0139998 128.779 0.391999 128.779 1.004C128.779 1.544 129.085 2.066 131.245 2.066C133.369 2.066 133.675 1.544 133.675 1.004ZM133.369 14C133.315 12.326 133.315 10.868 133.315 8.42C133.315 6.116 133.315 4.514 133.369 2.786H129.085C129.121 4.496 129.139 6.134 129.139 8.186C129.139 10.364 129.139 12.272 129.085 14H133.369ZM147.184 14C147.13 12.812 147.112 11.642 147.112 10.238C147.112 9.068 147.148 8.15 147.148 6.35C147.148 3.668 145.816 2.624 143.494 2.624C141.694 2.624 140.434 3.236 139.768 4.676L139.66 4.64C139.696 4.01 139.696 3.488 139.714 2.786H135.43C135.466 4.334 135.484 6.026 135.484 8.42C135.484 10.958 135.466 12.398 135.43 14H139.714C139.696 12.884 139.678 11.714 139.678 8.24C139.678 6.62 140.488 6.044 141.514 6.044C142.54 6.044 142.918 6.512 142.918 7.682C142.918 10.31 142.9 12.434 142.864 14H147.184ZM153.912 11.516C152.94 11.516 152.598 11.21 152.598 10.436C152.598 9.68 153.084 9.356 154.2 9.356C154.722 9.356 155.226 9.374 155.694 9.428C155.694 10.814 155.01 11.516 153.912 11.516ZM155.712 7.952C155.136 7.862 154.38 7.844 153.57 7.844C150.222 7.844 148.674 8.78 148.674 11.12C148.674 13.406 149.898 14.162 152.184 14.162C154.038 14.162 155.244 13.514 155.694 12.128H155.802C155.784 12.47 155.766 12.812 155.766 13.082C155.766 13.928 155.892 14 156.63 14H160.014C159.852 13.514 159.762 11.984 159.762 10.742C159.762 9.374 159.816 8.312 159.816 6.8C159.816 4.118 158.268 2.588 154.38 2.588C150.384 2.588 148.872 4.298 149.016 7.34C149.502 7.268 150.294 7.268 151.068 7.268C151.716 7.268 152.346 7.268 152.778 7.304C152.706 6.134 153.21 5.684 154.29 5.684C155.316 5.684 155.712 6.152 155.712 7.052V7.952ZM161.043 2.786C161.079 3.74 161.061 5.18 161.061 6.206L162.159 6.224C162.141 7.646 162.123 8.996 162.123 10.022C162.123 12.506 163.185 14.144 166.839 14.144C168.171 14.144 169.053 14 170.115 13.73C169.971 12.632 169.773 11.066 169.719 9.932C169.161 10.148 168.441 10.274 167.595 10.274C166.587 10.274 166.227 9.968 166.227 9.158C166.227 8.132 166.227 7.178 166.245 6.278C167.703 6.296 169.071 6.332 169.791 6.35C169.773 5.216 169.827 3.902 169.863 2.786C168.837 2.804 167.577 2.822 166.299 2.822C166.317 2.066 166.353 1.346 166.371 0.661999C165.723 0.698 164.985 0.698 164.283 0.698C163.581 0.698 162.861 0.698 162.213 0.661999C162.213 1.292 162.213 2.03 162.195 2.804L161.043 2.786ZM178.901 8.24C178.901 10.148 178.217 10.904 176.957 10.904C175.733 10.904 175.013 10.166 175.013 8.24C175.013 6.314 175.751 5.72 176.957 5.72C178.181 5.72 178.901 6.35 178.901 8.24ZM183.077 8.168C183.077 4.154 180.791 2.552 176.957 2.552C173.123 2.552 170.909 4.154 170.909 8.168C170.909 12.164 172.907 14.234 176.957 14.234C181.007 14.234 183.077 12.164 183.077 8.168ZM188.087 5.198C188.105 4.316 188.141 3.56 188.177 2.786H184.631C184.685 4.37 184.685 5.972 184.685 8.33C184.685 10.742 184.667 12.434 184.631 14H189.167C189.095 12.776 189.077 11.084 189.077 9.662C189.077 7.646 189.581 7.07 191.021 7.052C191.489 7.052 191.939 7.124 192.335 7.25C192.353 5.774 192.461 4.1 192.569 2.822C192.173 2.714 191.759 2.66 191.309 2.66C189.833 2.66 188.735 3.362 188.231 5.198H188.087Z" fill="#094C43"/>
</svg>
