<svg width="65" height="50" viewBox="0 0 65 50" fill="none" xmlns="http://www.w3.org/2000/svg">
<path d="M33.4318 25.6471C35.0104 24.2886 36.2766 22.6085 37.1444 20.7207C38.0122 18.8328 38.4613 16.7815 38.4613 14.7059C38.4613 10.8056 36.9028 7.06514 34.1286 4.30725C31.3544 1.54937 27.5918 5.26209e-07 23.6685 5.26209e-07C19.7452 5.26209e-07 15.9826 1.54937 13.2084 4.30725C10.4342 7.06514 8.87569 10.8056 8.87569 14.7059C8.87567 16.7815 9.3248 18.8328 10.1926 20.7207C11.0604 22.6085 12.3266 24.2886 13.9052 25.6471C9.76367 27.5114 6.24986 30.5221 3.78394 34.3192C1.31803 38.1164 0.00435457 42.5391 0 47.0588C0 47.8389 0.311705 48.587 0.866543 49.1385C1.42138 49.6901 2.1739 50 2.95856 50C3.74322 50 4.49574 49.6901 5.05058 49.1385C5.60542 48.587 5.91713 47.8389 5.91713 47.0588C5.91713 42.3785 7.78736 37.8899 11.1164 34.5805C14.4454 31.271 18.9605 29.4118 23.6685 29.4118C28.3765 29.4118 32.8916 31.271 36.2206 34.5805C39.5497 37.8899 41.4199 42.3785 41.4199 47.0588C41.4199 47.8389 41.7316 48.587 42.2864 49.1385C42.8413 49.6901 43.5938 50 44.3784 50C45.1631 50 45.9156 49.6901 46.4705 49.1385C47.0253 48.587 47.337 47.8389 47.337 47.0588C47.3326 42.5391 46.019 38.1164 43.5531 34.3192C41.0871 30.5221 37.5733 27.5114 33.4318 25.6471ZM23.6685 23.5294C21.9131 23.5294 20.197 23.0119 18.7374 22.0424C17.2778 21.0728 16.1402 19.6948 15.4684 18.0825C14.7967 16.4702 14.6209 14.6961 14.9634 12.9845C15.3058 11.2729 16.1512 9.7007 17.3924 8.46671C18.6337 7.23271 20.2152 6.39235 21.9369 6.0519C23.6587 5.71144 25.4433 5.88617 27.0651 6.55401C28.6869 7.22184 30.0731 8.35277 31.0484 9.80379C32.0236 11.2548 32.5442 12.9608 32.5442 14.7059C32.5442 17.046 31.6091 19.2903 29.9446 20.9451C28.28 22.5998 26.0225 23.5294 23.6685 23.5294ZM52.4849 24.4706C54.3783 22.351 55.6151 19.7325 56.0464 16.9304C56.4778 14.1283 56.0853 11.262 54.9161 8.67647C53.747 6.09096 51.8512 3.89646 49.4567 2.35713C47.0623 0.817794 44.2714 -0.000757647 41.4199 5.26209e-07C40.6352 5.26209e-07 39.8827 0.309873 39.3279 0.861451C38.773 1.41303 38.4613 2.16113 38.4613 2.94118C38.4613 3.72123 38.773 4.46932 39.3279 5.0209C39.8827 5.57248 40.6352 5.88235 41.4199 5.88235C43.7739 5.88235 46.0314 6.81197 47.6959 8.46671C49.3605 10.1214 50.2956 12.3657 50.2956 14.7059C50.2914 16.2507 49.8793 17.7674 49.1005 19.1042C48.3217 20.441 47.2035 21.5511 45.8577 22.3235C45.4191 22.5751 45.0527 22.9343 44.7937 23.3669C44.5347 23.7995 44.3917 24.2909 44.3784 24.7941C44.3661 25.2934 44.4818 25.7876 44.7147 26.2302C44.9477 26.6727 45.2901 27.049 45.7098 27.3235L46.8636 28.0882L47.2482 28.2941C50.8145 29.9756 53.8231 32.6353 55.9197 35.9597C58.0164 39.2842 59.1137 43.1351 59.0825 47.0588C59.0825 47.8389 59.3942 48.587 59.949 49.1385C60.5039 49.6901 61.2564 50 62.0411 50C62.8257 50 63.5782 49.6901 64.1331 49.1385C64.6879 48.587 64.9996 47.8389 64.9996 47.0588C65.0238 42.5454 63.8867 38.1007 61.6963 34.1472C59.5059 30.1937 56.335 26.8627 52.4849 24.4706Z" fill="#094343"/>
</svg>
